<?xml version="1.0" encoding="UTF-8" standalone="no"?>
<!DOCTYPE svg PUBLIC "-//W3C//DTD SVG 1.1//EN"
 "http://www.w3.org/Graphics/SVG/1.1/DTD/svg11.dtd">
<!-- Generated by graphviz version 2.40.1 (20161225.0304)
 -->
<!-- Title: orphans Pages: 1 -->
<svg width="309pt" height="701pt"
 viewBox="0.00 0.00 309.00 701.00" xmlns="http://www.w3.org/2000/svg" xmlns:xlink="http://www.w3.org/1999/xlink">
<g id="graph0" class="graph" transform="scale(1 1) rotate(0) translate(4 697)">
<title>orphans</title>
<polygon fill="#ffffff" stroke="transparent" points="-4,4 -4,-697 305,-697 305,4 -4,4"/>
<!-- flyway_schema_history -->
<g id="node1" class="node">
<title>flyway_schema_history</title>
<g id="a_node1"><a xlink:href="../../tables/flyway_schema_history.html" xlink:title="flyway_schema_history" target="_top">
<polygon fill="#ffffff" stroke="transparent" points="18.5,-4 18.5,-270 282.5,-270 282.5,-4 18.5,-4"/>
<polygon fill="#f5f5f5" stroke="transparent" points="20.5,-245 20.5,-268 280.5,-268 280.5,-245 20.5,-245"/>
<polygon fill="none" stroke="#000000" points="20.5,-245 20.5,-268 280.5,-268 280.5,-245 20.5,-245"/>
<text text-anchor="start" x="25.5" y="-253.6" font-family="Helvetica,sans-Serif" font-weight="bold" font-size="11.00" fill="#000000">flyway_schema_history</text>
<text text-anchor="start" x="245.5437" y="-253.1" font-family="Helvetica,sans-Serif" font-size="11.00" fill="#000000">[table]</text>
<polygon fill="none" stroke="#000000" points="20.5,-223 20.5,-245 196.5,-245 196.5,-223 20.5,-223"/>
<image xlink:href="../../images/primaryKeys.png" width="11px" height="12px" preserveAspectRatio="xMinYMin meet" x="25.5" y="-240"/>
<text text-anchor="start" x="40.5" y="-230.1" font-family="Helvetica,sans-Serif" font-size="11.00" fill="#000000">installed_rank</text>
<polygon fill="none" stroke="#000000" points="196.5,-223 196.5,-245 280.5,-245 280.5,-223 196.5,-223"/>
<text text-anchor="start" x="199.5" y="-230.7" font-family="Helvetica,sans-Serif" font-size="11.00" fill="#000000">int4[10]</text>
<polygon fill="none" stroke="#000000" points="20.5,-201 20.5,-223 196.5,-223 196.5,-201 20.5,-201"/>
<text text-anchor="start" x="40.5" y="-208.1" font-family="Helvetica,sans-Serif" font-size="11.00" fill="#000000">version</text>
<polygon fill="none" stroke="#000000" points="196.5,-201 196.5,-223 280.5,-223 280.5,-201 196.5,-201"/>
<text text-anchor="start" x="199.5" y="-208.7" font-family="Helvetica,sans-Serif" font-size="11.00" fill="#000000">varchar[50]</text>
<polygon fill="none" stroke="#000000" points="20.5,-179 20.5,-201 196.5,-201 196.5,-179 20.5,-179"/>
<text text-anchor="start" x="40.5" y="-186.1" font-family="Helvetica,sans-Serif" font-size="11.00" fill="#000000">description</text>
<polygon fill="none" stroke="#000000" points="196.5,-179 196.5,-201 280.5,-201 280.5,-179 196.5,-179"/>
<text text-anchor="start" x="199.5" y="-186.7" font-family="Helvetica,sans-Serif" font-size="11.00" fill="#000000">varchar[200]</text>
<polygon fill="none" stroke="#000000" points="20.5,-157 20.5,-179 196.5,-179 196.5,-157 20.5,-157"/>
<text text-anchor="start" x="40.5" y="-164.1" font-family="Helvetica,sans-Serif" font-size="11.00" fill="#000000">type</text>
<polygon fill="none" stroke="#000000" points="196.5,-157 196.5,-179 280.5,-179 280.5,-157 196.5,-157"/>
<text text-anchor="start" x="199.5" y="-164.7" font-family="Helvetica,sans-Serif" font-size="11.00" fill="#000000">varchar[20]</text>
<polygon fill="none" stroke="#000000" points="20.5,-135 20.5,-157 196.5,-157 196.5,-135 20.5,-135"/>
<text text-anchor="start" x="40.5" y="-142.1" font-family="Helvetica,sans-Serif" font-size="11.00" fill="#000000">script</text>
<polygon fill="none" stroke="#000000" points="196.5,-135 196.5,-157 280.5,-157 280.5,-135 196.5,-135"/>
<text text-anchor="start" x="199.5" y="-142.7" font-family="Helvetica,sans-Serif" font-size="11.00" fill="#000000">varchar[1000]</text>
<polygon fill="none" stroke="#000000" points="20.5,-113 20.5,-135 196.5,-135 196.5,-113 20.5,-113"/>
<text text-anchor="start" x="40.5" y="-120.1" font-family="Helvetica,sans-Serif" font-size="11.00" fill="#000000">checksum</text>
<polygon fill="none" stroke="#000000" points="196.5,-113 196.5,-135 280.5,-135 280.5,-113 196.5,-113"/>
<text text-anchor="start" x="199.5" y="-120.7" font-family="Helvetica,sans-Serif" font-size="11.00" fill="#000000">int4[10]</text>
<polygon fill="none" stroke="#000000" points="20.5,-91 20.5,-113 196.5,-113 196.5,-91 20.5,-91"/>
<text text-anchor="start" x="40.5" y="-98.1" font-family="Helvetica,sans-Serif" font-size="11.00" fill="#000000">installed_by</text>
<polygon fill="none" stroke="#000000" points="196.5,-91 196.5,-113 280.5,-113 280.5,-91 196.5,-91"/>
<text text-anchor="start" x="199.5" y="-98.7" font-family="Helvetica,sans-Serif" font-size="11.00" fill="#000000">varchar[100]</text>
<polygon fill="none" stroke="#000000" points="20.5,-69 20.5,-91 196.5,-91 196.5,-69 20.5,-69"/>
<text text-anchor="start" x="40.5" y="-76.1" font-family="Helvetica,sans-Serif" font-size="11.00" fill="#000000">installed_on</text>
<polygon fill="none" stroke="#000000" points="196.5,-69 196.5,-91 280.5,-91 280.5,-69 196.5,-69"/>
<text text-anchor="start" x="199.3807" y="-76.7" font-family="Helvetica,sans-Serif" font-size="11.00" fill="#000000">timestamp[29,6]</text>
<polygon fill="none" stroke="#000000" points="20.5,-47 20.5,-69 196.5,-69 196.5,-47 20.5,-47"/>
<text text-anchor="start" x="40.5" y="-54.1" font-family="Helvetica,sans-Serif" font-size="11.00" fill="#000000">execution_time</text>
<polygon fill="none" stroke="#000000" points="196.5,-47 196.5,-69 280.5,-69 280.5,-47 196.5,-47"/>
<text text-anchor="start" x="199.5" y="-54.7" font-family="Helvetica,sans-Serif" font-size="11.00" fill="#000000">int4[10]</text>
<polygon fill="#ffffff" stroke="transparent" points="20.5,-25 20.5,-47 196.5,-47 196.5,-25 20.5,-25"/>
<polygon fill="none" stroke="#000000" points="20.5,-25 20.5,-47 196.5,-47 196.5,-25 20.5,-25"/>
<text text-anchor="start" x="40.5" y="-32.1" font-family="Helvetica,sans-Serif" font-size="11.00" fill="#000000">success</text>
<polygon fill="none" stroke="#000000" points="196.5,-25 196.5,-47 280.5,-47 280.5,-25 196.5,-25"/>
<text text-anchor="start" x="199.5" y="-32.7" font-family="Helvetica,sans-Serif" font-size="11.00" fill="#000000">bool[1]</text>
<polygon fill="#ffffff" stroke="transparent" points="20.5,-6 20.5,-25 112.5,-25 112.5,-6 20.5,-6"/>
<polygon fill="none" stroke="#000000" points="20.5,-6 20.5,-25 112.5,-25 112.5,-6 20.5,-6"/>
<text text-anchor="start" x="23.5" y="-12.1" font-family="Helvetica,sans-Serif" font-size="11.00" fill="#000000">&lt; 0</text>
<polygon fill="#ffffff" stroke="transparent" points="112.5,-6 112.5,-25 196.5,-25 196.5,-6 112.5,-6"/>
<polygon fill="none" stroke="#000000" points="112.5,-6 112.5,-25 196.5,-25 196.5,-6 112.5,-6"/>
<text text-anchor="start" x="187.3862" y="-12.1" font-family="Helvetica,sans-Serif" font-size="11.00" fill="#000000"> &#160;</text>
<polygon fill="#ffffff" stroke="transparent" points="196.5,-6 196.5,-25 280.5,-25 280.5,-6 196.5,-6"/>
<polygon fill="none" stroke="#000000" points="196.5,-6 196.5,-25 280.5,-25 280.5,-6 196.5,-6"/>
<text text-anchor="start" x="261.9053" y="-12.1" font-family="Helvetica,sans-Serif" font-size="11.00" fill="#000000">0 &gt;</text>
<polygon fill="none" stroke="#000000" stroke-width="2" points="19.5,-5 19.5,-269 281.5,-269 281.5,-5 19.5,-5"/>
</a>
</g>
</g>
<!-- non_association -->
<g id="node2" class="node">
<title>non_association</title>
<g id="a_node2"><a xlink:href="../../tables/non_association.html" xlink:title="non_association" target="_top">
<polygon fill="#ffffff" stroke="transparent" points="8,-291 8,-689 293,-689 293,-291 8,-291"/>
<polygon fill="#f5f5f5" stroke="transparent" points="10.5,-664 10.5,-687 291.5,-687 291.5,-664 10.5,-664"/>
<polygon fill="none" stroke="#000000" points="10.5,-664 10.5,-687 291.5,-687 291.5,-664 10.5,-664"/>
<text text-anchor="start" x="15.5" y="-672.6" font-family="Helvetica,sans-Serif" font-weight="bold" font-size="11.00" fill="#000000">non_association</text>
<text text-anchor="start" x="256.5437" y="-672.1" font-family="Helvetica,sans-Serif" font-size="11.00" fill="#000000">[table]</text>
<polygon fill="none" stroke="#000000" points="10.5,-642 10.5,-664 199.5,-664 199.5,-642 10.5,-642"/>
<image xlink:href="../../images/primaryKeys.png" width="11px" height="12px" preserveAspectRatio="xMinYMin meet" x="15.5" y="-659"/>
<text text-anchor="start" x="30.5" y="-649.1" font-family="Helvetica,sans-Serif" font-size="11.00" fill="#000000">id</text>
<polygon fill="none" stroke="#000000" points="199.5,-642 199.5,-664 291.5,-664 291.5,-642 199.5,-642"/>
<text text-anchor="start" x="202.5" y="-649.7" font-family="Helvetica,sans-Serif" font-size="11.00" fill="#000000">bigserial[19]</text>
<polygon fill="#ffffff" stroke="transparent" points="10.5,-620 10.5,-642 199.5,-642 199.5,-620 10.5,-620"/>
<polygon fill="none" stroke="#000000" points="10.5,-620 10.5,-642 199.5,-642 199.5,-620 10.5,-620"/>
<text text-anchor="start" x="30.5" y="-627.1" font-family="Helvetica,sans-Serif" font-size="11.00" fill="#000000">first_prisoner_number</text>
<polygon fill="none" stroke="#000000" points="199.5,-620 199.5,-642 291.5,-642 291.5,-620 199.5,-620"/>
<text text-anchor="start" x="202.5" y="-627.7" font-family="Helvetica,sans-Serif" font-size="11.00" fill="#000000">varchar[10]</text>
<polygon fill="none" stroke="#000000" points="10.5,-598 10.5,-620 199.5,-620 199.5,-598 10.5,-598"/>
<text text-anchor="start" x="30.5" y="-605.1" font-family="Helvetica,sans-Serif" font-size="11.00" fill="#000000">first_prisoner_role</text>
<polygon fill="none" stroke="#000000" points="199.5,-598 199.5,-620 291.5,-620 291.5,-598 199.5,-598"/>
<text text-anchor="start" x="202.5" y="-605.7" font-family="Helvetica,sans-Serif" font-size="11.00" fill="#000000">varchar[20]</text>
<polygon fill="#ffffff" stroke="transparent" points="10.5,-576 10.5,-598 199.5,-598 199.5,-576 10.5,-576"/>
<polygon fill="none" stroke="#000000" points="10.5,-576 10.5,-598 199.5,-598 199.5,-576 10.5,-576"/>
<text text-anchor="start" x="30.5" y="-583.1" font-family="Helvetica,sans-Serif" font-size="11.00" fill="#000000">second_prisoner_number</text>
<polygon fill="none" stroke="#000000" points="199.5,-576 199.5,-598 291.5,-598 291.5,-576 199.5,-576"/>
<text text-anchor="start" x="202.5" y="-583.7" font-family="Helvetica,sans-Serif" font-size="11.00" fill="#000000">varchar[10]</text>
<polygon fill="none" stroke="#000000" points="10.5,-554 10.5,-576 199.5,-576 199.5,-554 10.5,-554"/>
<text text-anchor="start" x="30.5" y="-561.1" font-family="Helvetica,sans-Serif" font-size="11.00" fill="#000000">second_prisoner_role</text>
<polygon fill="none" stroke="#000000" points="199.5,-554 199.5,-576 291.5,-576 291.5,-554 199.5,-554"/>
<text text-anchor="start" x="202.5" y="-561.7" font-family="Helvetica,sans-Serif" font-size="11.00" fill="#000000">varchar[20]</text>
<polygon fill="none" stroke="#000000" points="10.5,-532 10.5,-554 199.5,-554 199.5,-532 10.5,-532"/>
<text text-anchor="start" x="30.5" y="-539.1" font-family="Helvetica,sans-Serif" font-size="11.00" fill="#000000">reason</text>
<polygon fill="none" stroke="#000000" points="199.5,-532 199.5,-554 291.5,-554 291.5,-532 199.5,-532"/>
<text text-anchor="start" x="202.5" y="-539.7" font-family="Helvetica,sans-Serif" font-size="11.00" fill="#000000">varchar[20]</text>
<polygon fill="none" stroke="#000000" points="10.5,-510 10.5,-532 199.5,-532 199.5,-510 10.5,-510"/>
<text text-anchor="start" x="30.5" y="-517.1" font-family="Helvetica,sans-Serif" font-size="11.00" fill="#000000">restriction_type</text>
<polygon fill="none" stroke="#000000" points="199.5,-510 199.5,-532 291.5,-532 291.5,-510 199.5,-510"/>
<text text-anchor="start" x="202.5" y="-517.7" font-family="Helvetica,sans-Serif" font-size="11.00" fill="#000000">varchar[20]</text>
<polygon fill="none" stroke="#000000" points="10.5,-488 10.5,-510 199.5,-510 199.5,-488 10.5,-488"/>
<text text-anchor="start" x="30.5" y="-495.1" font-family="Helvetica,sans-Serif" font-size="11.00" fill="#000000">comment</text>
<polygon fill="none" stroke="#000000" points="199.5,-488 199.5,-510 291.5,-510 291.5,-488 199.5,-488"/>
<text text-anchor="start" x="202.5" y="-495.7" font-family="Helvetica,sans-Serif" font-size="11.00" fill="#000000">text[2147483647]</text>
<polygon fill="none" stroke="#000000" points="10.5,-466 10.5,-488 199.5,-488 199.5,-466 10.5,-466"/>
<text text-anchor="start" x="30.5" y="-473.1" font-family="Helvetica,sans-Serif" font-size="11.00" fill="#000000">when_created</text>
<polygon fill="none" stroke="#000000" points="199.5,-466 199.5,-488 291.5,-488 291.5,-466 199.5,-466"/>
<text text-anchor="start" x="202.1023" y="-473.7" font-family="Helvetica,sans-Serif" font-size="11.00" fill="#000000">timestamptz[35,6]</text>
<polygon fill="none" stroke="#000000" points="10.5,-444 10.5,-466 199.5,-466 199.5,-444 10.5,-444"/>
<text text-anchor="start" x="30.5" y="-451.1" font-family="Helvetica,sans-Serif" font-size="11.00" fill="#000000">when_updated</text>
<polygon fill="none" stroke="#000000" points="199.5,-444 199.5,-466 291.5,-466 291.5,-444 199.5,-444"/>
<text text-anchor="start" x="202.1023" y="-451.7" font-family="Helvetica,sans-Serif" font-size="11.00" fill="#000000">timestamptz[35,6]</text>
<polygon fill="none" stroke="#000000" points="10.5,-422 10.5,-444 199.5,-444 199.5,-422 10.5,-422"/>
<text text-anchor="start" x="30.5" y="-429.1" font-family="Helvetica,sans-Serif" font-size="11.00" fill="#000000">authorised_by</text>
<polygon fill="none" stroke="#000000" points="199.5,-422 199.5,-444 291.5,-444 291.5,-422 199.5,-422"/>
<text text-anchor="start" x="202.5" y="-429.7" font-family="Helvetica,sans-Serif" font-size="11.00" fill="#000000">varchar[60]</text>
<polygon fill="none" stroke="#000000" points="10.5,-400 10.5,-422 199.5,-422 199.5,-400 10.5,-400"/>
<text text-anchor="start" x="30.5" y="-407.1" font-family="Helvetica,sans-Serif" font-size="11.00" fill="#000000">updated_by</text>
<polygon fill="none" stroke="#000000" points="199.5,-400 199.5,-422 291.5,-422 291.5,-400 199.5,-400"/>
<text text-anchor="start" x="202.5" y="-407.7" font-family="Helvetica,sans-Serif" font-size="11.00" fill="#000000">varchar[60]</text>
<polygon fill="none" stroke="#000000" points="10.5,-378 10.5,-400 199.5,-400 199.5,-378 10.5,-378"/>
<text text-anchor="start" x="30.5" y="-385.1" font-family="Helvetica,sans-Serif" font-size="11.00" fill="#000000">is_closed</text>
<polygon fill="none" stroke="#000000" points="199.5,-378 199.5,-400 291.5,-400 291.5,-378 199.5,-378"/>
<text text-anchor="start" x="202.5" y="-385.7" font-family="Helvetica,sans-Serif" font-size="11.00" fill="#000000">bool[1]</text>
<polygon fill="none" stroke="#000000" points="10.5,-356 10.5,-378 199.5,-378 199.5,-356 10.5,-356"/>
<text text-anchor="start" x="30.5" y="-363.1" font-family="Helvetica,sans-Serif" font-size="11.00" fill="#000000">closed_by</text>
<polygon fill="none" stroke="#000000" points="199.5,-356 199.5,-378 291.5,-378 291.5,-356 199.5,-356"/>
<text text-anchor="start" x="202.5" y="-363.7" font-family="Helvetica,sans-Serif" font-size="11.00" fill="#000000">varchar[60]</text>
<polygon fill="none" stroke="#000000" points="10.5,-334 10.5,-356 199.5,-356 199.5,-334 10.5,-334"/>
<text text-anchor="start" x="30.5" y="-341.1" font-family="Helvetica,sans-Serif" font-size="11.00" fill="#000000">closed_reason</text>
<polygon fill="none" stroke="#000000" points="199.5,-334 199.5,-356 291.5,-356 291.5,-334 199.5,-334"/>
<text text-anchor="start" x="202.5" y="-341.7" font-family="Helvetica,sans-Serif" font-size="11.00" fill="#000000">text[2147483647]</text>
<polygon fill="none" stroke="#000000" points="10.5,-312 10.5,-334 199.5,-334 199.5,-312 10.5,-312"/>
<text text-anchor="start" x="30.5" y="-319.1" font-family="Helvetica,sans-Serif" font-size="11.00" fill="#000000">closed_at</text>
<polygon fill="none" stroke="#000000" points="199.5,-312 199.5,-334 291.5,-334 291.5,-312 199.5,-312"/>
<text text-anchor="start" x="202.1023" y="-319.7" font-family="Helvetica,sans-Serif" font-size="11.00" fill="#000000">timestamptz[35,6]</text>
<polygon fill="#ffffff" stroke="transparent" points="10.5,-293 10.5,-312 109.5,-312 109.5,-293 10.5,-293"/>
<polygon fill="none" stroke="#000000" points="10.5,-293 10.5,-312 109.5,-312 109.5,-293 10.5,-293"/>
<text text-anchor="start" x="13.5" y="-299.1" font-family="Helvetica,sans-Serif" font-size="11.00" fill="#000000">&lt; 0</text>
<polygon fill="#ffffff" stroke="transparent" points="109.5,-293 109.5,-312 199.5,-312 199.5,-293 109.5,-293"/>
<polygon fill="none" stroke="#000000" points="109.5,-293 109.5,-312 199.5,-312 199.5,-293 109.5,-293"/>
<text text-anchor="start" x="190.3862" y="-299.1" font-family="Helvetica,sans-Serif" font-size="11.00" fill="#000000"> &#160;</text>
<polygon fill="#ffffff" stroke="transparent" points="199.5,-293 199.5,-312 291.5,-312 291.5,-293 199.5,-293"/>
<polygon fill="none" stroke="#000000" points="199.5,-293 199.5,-312 291.5,-312 291.5,-293 199.5,-293"/>
<text text-anchor="start" x="272.9053" y="-299.1" font-family="Helvetica,sans-Serif" font-size="11.00" fill="#000000">0 &gt;</text>
<polygon fill="none" stroke="#000000" stroke-width="2" points="9,-292 9,-688 292,-688 292,-292 9,-292"/>
</a>
</g>
</g>
</g>
</svg>
